<svg width="219" height="49" viewBox="0 0 219 49" fill="none" xmlns="http://www.w3.org/2000/svg">
<g filter="url(#filter0_d_1_3)">
<path d="M17.9 40.2C15.3 40.2 12.95 39.6 10.85 38.4C8.78333 37.1667 7.13333 35.5 5.9 33.4C4.7 31.3 4.1 28.9333 4.1 26.3C4.1 23.6667 4.65 21.3167 5.75 19.25C6.88333 17.15 8.41667 15.5 10.35 14.3C12.2833 13.0667 14.4667 12.45 16.9 12.45C18.8667 12.45 20.6833 12.8667 22.35 13.7C24.0167 14.5 25.4167 15.6 26.55 17V3.5C26.55 2.73333 26.7833 2.11667 27.25 1.65C27.75 1.18333 28.3667 0.949999 29.1 0.949999C29.8667 0.949999 30.4833 1.18333 30.95 1.65C31.4167 2.11667 31.65 2.73333 31.65 3.5V26.3C31.65 28.9333 31.0333 31.3 29.8 33.4C28.6 35.5 26.9667 37.1667 24.9 38.4C22.8333 39.6 20.5 40.2 17.9 40.2ZM17.9 35.7C19.6 35.7 21.1167 35.3 22.45 34.5C23.7833 33.6667 24.8333 32.5333 25.6 31.1C26.3667 29.6667 26.75 28.0667 26.75 26.3C26.75 24.5 26.3667 22.9 25.6 21.5C24.8333 20.1 23.7833 19 22.45 18.2C21.1167 17.3667 19.6 16.95 17.9 16.95C16.2333 16.95 14.7167 17.3667 13.35 18.2C12.0167 19 10.95 20.1 10.15 21.5C9.38333 22.9 9 24.5 9 26.3C9 28.0667 9.38333 29.6667 10.15 31.1C10.95 32.5333 12.0167 33.6667 13.35 34.5C14.7167 35.3 16.2333 35.7 17.9 35.7ZM58.3063 40.2C55.8729 40.2 53.6896 39.6 51.7563 38.4C49.8229 37.1667 48.2896 35.5167 47.1563 33.45C46.0563 31.35 45.5063 28.9833 45.5063 26.35C45.5063 23.7167 46.1063 21.35 47.3063 19.25C48.5396 17.15 50.1896 15.5 52.2563 14.3C54.3563 13.0667 56.7063 12.45 59.3063 12.45C61.9063 12.45 64.2396 13.0667 66.3063 14.3C68.3729 15.5 70.0063 17.15 71.2063 19.25C72.4396 21.35 73.0563 23.7167 73.0563 26.35H71.1063C71.1063 28.9833 70.5396 31.35 69.4063 33.45C68.3063 35.5167 66.7896 37.1667 64.8563 38.4C62.9229 39.6 60.7396 40.2 58.3063 40.2ZM59.3063 35.7C61.0063 35.7 62.5229 35.3 63.8563 34.5C65.1896 33.6667 66.2396 32.55 67.0063 31.15C67.7729 29.7167 68.1563 28.1167 68.1563 26.35C68.1563 24.55 67.7729 22.95 67.0063 21.55C66.2396 20.1167 65.1896 19 63.8563 18.2C62.5229 17.3667 61.0063 16.95 59.3063 16.95C57.6396 16.95 56.1229 17.3667 54.7563 18.2C53.4229 19 52.3563 20.1167 51.5563 21.55C50.7896 22.95 50.4063 24.55 50.4063 26.35C50.4063 28.1167 50.7896 29.7167 51.5563 31.15C52.3563 32.55 53.4229 33.6667 54.7563 34.5C56.1229 35.3 57.6396 35.7 59.3063 35.7ZM70.5063 40.05C69.7729 40.05 69.1563 39.8167 68.6563 39.35C68.1896 38.85 67.9563 38.2333 67.9563 37.5V29.85L68.9063 24.55L73.0563 26.35V37.5C73.0563 38.2333 72.8063 38.85 72.3063 39.35C71.8396 39.8167 71.2396 40.05 70.5063 40.05ZM100.646 40.2C98.0465 40.2 95.7132 39.6 93.6465 38.4C91.5798 37.1667 89.9465 35.5 88.7465 33.4C87.5465 31.3 86.9298 28.9333 86.8965 26.3V3.5C86.8965 2.73333 87.1298 2.11667 87.5965 1.65C88.0965 1.18333 88.7132 0.949999 89.4465 0.949999C90.2132 0.949999 90.8298 1.18333 91.2965 1.65C91.7632 2.11667 91.9965 2.73333 91.9965 3.5V17C93.1632 15.6 94.5632 14.5 96.1965 13.7C97.8632 12.8667 99.6798 12.45 101.646 12.45C104.08 12.45 106.263 13.0667 108.196 14.3C110.13 15.5 111.646 17.15 112.746 19.25C113.88 21.3167 114.446 23.6667 114.446 26.3C114.446 28.9333 113.83 31.3 112.596 33.4C111.396 35.5 109.763 37.1667 107.696 38.4C105.63 39.6 103.28 40.2 100.646 40.2ZM100.646 35.7C102.346 35.7 103.863 35.3 105.196 34.5C106.53 33.6667 107.58 32.5333 108.346 31.1C109.146 29.6667 109.546 28.0667 109.546 26.3C109.546 24.5 109.146 22.9 108.346 21.5C107.58 20.1 106.53 19 105.196 18.2C103.863 17.3667 102.346 16.95 100.646 16.95C98.9798 16.95 97.4632 17.3667 96.0965 18.2C94.7632 19 93.7132 20.1 92.9465 21.5C92.1798 22.9 91.7965 24.5 91.7965 26.3C91.7965 28.0667 92.1798 29.6667 92.9465 31.1C93.7132 32.5333 94.7632 33.6667 96.0965 34.5C97.4632 35.3 98.9798 35.7 100.646 35.7ZM134.803 40C133.336 40 132.036 39.6 130.903 38.8C129.769 38 128.886 36.9167 128.253 35.55C127.619 34.15 127.303 32.55 127.303 30.75V3.45C127.303 2.71667 127.536 2.11667 128.003 1.65C128.469 1.18333 129.069 0.949999 129.803 0.949999C130.536 0.949999 131.136 1.18333 131.603 1.65C132.069 2.11667 132.303 2.71667 132.303 3.45V30.75C132.303 31.9833 132.536 33 133.003 33.8C133.469 34.6 134.069 35 134.803 35H136.053C136.719 35 137.253 35.2333 137.653 35.7C138.086 36.1667 138.303 36.7667 138.303 37.5C138.303 38.2333 137.986 38.8333 137.353 39.3C136.719 39.7667 135.903 40 134.903 40H134.803ZM161.043 40.25C158.743 40.25 156.676 39.7667 154.843 38.8C153.043 37.8 151.61 36.35 150.543 34.45C149.51 32.55 148.993 30.2167 148.993 27.45V15.15C148.993 14.4167 149.226 13.8167 149.693 13.35C150.193 12.85 150.81 12.6 151.543 12.6C152.276 12.6 152.876 12.85 153.343 13.35C153.843 13.8167 154.093 14.4167 154.093 15.15V27.45C154.093 29.3167 154.443 30.8667 155.143 32.1C155.843 33.3 156.793 34.2 157.993 34.8C159.193 35.3667 160.543 35.65 162.043 35.65C163.476 35.65 164.743 35.3667 165.843 34.8C166.976 34.2333 167.876 33.4667 168.543 32.5C169.21 31.5333 169.543 30.45 169.543 29.25H172.693C172.693 31.3167 172.176 33.1833 171.143 34.85C170.143 36.5167 168.76 37.8333 166.993 38.8C165.26 39.7667 163.276 40.25 161.043 40.25ZM172.093 40C171.36 40 170.743 39.7667 170.243 39.3C169.776 38.8 169.543 38.1833 169.543 37.45V15.15C169.543 14.3833 169.776 13.7667 170.243 13.3C170.743 12.8333 171.36 12.6 172.093 12.6C172.86 12.6 173.476 12.8333 173.943 13.3C174.41 13.7667 174.643 14.3833 174.643 15.15V37.45C174.643 38.1833 174.41 38.8 173.943 39.3C173.476 39.7667 172.86 40 172.093 40ZM201.375 40.25C199.075 40.25 197.008 39.7667 195.175 38.8C193.375 37.8 191.942 36.35 190.875 34.45C189.842 32.55 189.325 30.2167 189.325 27.45V15.15C189.325 14.4167 189.558 13.8167 190.025 13.35C190.525 12.85 191.142 12.6 191.875 12.6C192.608 12.6 193.208 12.85 193.675 13.35C194.175 13.8167 194.425 14.4167 194.425 15.15V27.45C194.425 29.3167 194.775 30.8667 195.475 32.1C196.175 33.3 197.125 34.2 198.325 34.8C199.525 35.3667 200.875 35.65 202.375 35.65C203.808 35.65 205.075 35.3667 206.175 34.8C207.308 34.2333 208.208 33.4667 208.875 32.5C209.542 31.5333 209.875 30.45 209.875 29.25H213.025C213.025 31.3167 212.508 33.1833 211.475 34.85C210.475 36.5167 209.092 37.8333 207.325 38.8C205.592 39.7667 203.608 40.25 201.375 40.25ZM212.425 40C211.692 40 211.075 39.7667 210.575 39.3C210.108 38.8 209.875 38.1833 209.875 37.45V15.15C209.875 14.3833 210.108 13.7667 210.575 13.3C211.075 12.8333 211.692 12.6 212.425 12.6C213.192 12.6 213.808 12.8333 214.275 13.3C214.742 13.7667 214.975 14.3833 214.975 15.15V37.45C214.975 38.1833 214.742 38.8 214.275 39.3C213.808 39.7667 213.192 40 212.425 40Z" fill="white"/>
</g>
<defs>
<filter id="filter0_d_1_3" x="0.100006" y="0.949997" width="218.875" height="47.3" filterUnits="userSpaceOnUse" color-interpolation-filters="sRGB">
<feFlood flood-opacity="0" result="BackgroundImageFix"/>
<feColorMatrix in="SourceAlpha" type="matrix" values="0 0 0 0 0 0 0 0 0 0 0 0 0 0 0 0 0 0 127 0" result="hardAlpha"/>
<feOffset dy="4"/>
<feGaussianBlur stdDeviation="2"/>
<feComposite in2="hardAlpha" operator="out"/>
<feColorMatrix type="matrix" values="0 0 0 0 0 0 0 0 0 0 0 0 0 0 0 0 0 0 0.25 0"/>
<feBlend mode="normal" in2="BackgroundImageFix" result="effect1_dropShadow_1_3"/>
<feBlend mode="normal" in="SourceGraphic" in2="effect1_dropShadow_1_3" result="shape"/>
</filter>
</defs>
</svg>
