<svg width="202" height="49" viewBox="0 0 202 49" fill="none" xmlns="http://www.w3.org/2000/svg">
<g filter="url(#filter0_d_1_3)">
<path d="M17.9 40.2C15.3 40.2 12.95 39.6 10.85 38.4C8.78333 37.1667 7.13333 35.5 5.9 33.4C4.7 31.3 4.1 28.9333 4.1 26.3C4.1 23.6667 4.65 21.3167 5.75 19.25C6.88333 17.15 8.41667 15.5 10.35 14.3C12.2833 13.0667 14.4667 12.45 16.9 12.45C18.8667 12.45 20.6833 12.8667 22.35 13.7C24.0167 14.5 25.4167 15.6 26.55 17V3.5C26.55 2.73333 26.7833 2.11667 27.25 1.65C27.75 1.18333 28.3667 0.949999 29.1 0.949999C29.8667 0.949999 30.4833 1.18333 30.95 1.65C31.4167 2.11667 31.65 2.73333 31.65 3.5V26.3C31.65 28.9333 31.0333 31.3 29.8 33.4C28.6 35.5 26.9667 37.1667 24.9 38.4C22.8333 39.6 20.5 40.2 17.9 40.2ZM17.9 35.7C19.6 35.7 21.1167 35.3 22.45 34.5C23.7833 33.6667 24.8333 32.5333 25.6 31.1C26.3667 29.6667 26.75 28.0667 26.75 26.3C26.75 24.5 26.3667 22.9 25.6 21.5C24.8333 20.1 23.7833 19 22.45 18.2C21.1167 17.3667 19.6 16.95 17.9 16.95C16.2333 16.95 14.7167 17.3667 13.35 18.2C12.0167 19 10.95 20.1 10.15 21.5C9.38333 22.9 9 24.5 9 26.3C9 28.0667 9.38333 29.6667 10.15 31.1C10.95 32.5333 12.0167 33.6667 13.35 34.5C14.7167 35.3 16.2333 35.7 17.9 35.7ZM54.8063 40.2C52.3729 40.2 50.1896 39.6 48.2563 38.4C46.3229 37.1667 44.7896 35.5167 43.6563 33.45C42.5563 31.35 42.0063 28.9833 42.0063 26.35C42.0063 23.7167 42.6063 21.35 43.8063 19.25C45.0396 17.15 46.6896 15.5 48.7563 14.3C50.8563 13.0667 53.2063 12.45 55.8063 12.45C58.4063 12.45 60.7396 13.0667 62.8063 14.3C64.8729 15.5 66.5063 17.15 67.7063 19.25C68.9396 21.35 69.5563 23.7167 69.5563 26.35H67.6063C67.6063 28.9833 67.0396 31.35 65.9063 33.45C64.8063 35.5167 63.2896 37.1667 61.3563 38.4C59.4229 39.6 57.2396 40.2 54.8063 40.2ZM55.8063 35.7C57.5063 35.7 59.0229 35.3 60.3563 34.5C61.6896 33.6667 62.7396 32.55 63.5063 31.15C64.2729 29.7167 64.6563 28.1167 64.6563 26.35C64.6563 24.55 64.2729 22.95 63.5063 21.55C62.7396 20.1167 61.6896 19 60.3563 18.2C59.0229 17.3667 57.5063 16.95 55.8063 16.95C54.1396 16.95 52.6229 17.3667 51.2563 18.2C49.9229 19 48.8563 20.1167 48.0563 21.55C47.2896 22.95 46.9063 24.55 46.9063 26.35C46.9063 28.1167 47.2896 29.7167 48.0563 31.15C48.8563 32.55 49.9229 33.6667 51.2563 34.5C52.6229 35.3 54.1396 35.7 55.8063 35.7ZM67.0063 40.05C66.2729 40.05 65.6563 39.8167 65.1563 39.35C64.6896 38.85 64.4563 38.2333 64.4563 37.5V29.85L65.4063 24.55L69.5563 26.35V37.5C69.5563 38.2333 69.3063 38.85 68.8063 39.35C68.3396 39.8167 67.7396 40.05 67.0063 40.05ZM93.6465 40.2C91.0465 40.2 88.7132 39.6 86.6465 38.4C84.5798 37.1667 82.9465 35.5 81.7465 33.4C80.5465 31.3 79.9298 28.9333 79.8965 26.3V3.5C79.8965 2.73333 80.1298 2.11667 80.5965 1.65C81.0965 1.18333 81.7132 0.949999 82.4465 0.949999C83.2132 0.949999 83.8298 1.18333 84.2965 1.65C84.7632 2.11667 84.9965 2.73333 84.9965 3.5V17C86.1632 15.6 87.5632 14.5 89.1965 13.7C90.8632 12.8667 92.6798 12.45 94.6465 12.45C97.0798 12.45 99.2632 13.0667 101.196 14.3C103.13 15.5 104.646 17.15 105.746 19.25C106.88 21.3167 107.446 23.6667 107.446 26.3C107.446 28.9333 106.83 31.3 105.596 33.4C104.396 35.5 102.763 37.1667 100.696 38.4C98.6298 39.6 96.2798 40.2 93.6465 40.2ZM93.6465 35.7C95.3465 35.7 96.8632 35.3 98.1965 34.5C99.5298 33.6667 100.58 32.5333 101.346 31.1C102.146 29.6667 102.546 28.0667 102.546 26.3C102.546 24.5 102.146 22.9 101.346 21.5C100.58 20.1 99.5298 19 98.1965 18.2C96.8632 17.3667 95.3465 16.95 93.6465 16.95C91.9798 16.95 90.4632 17.3667 89.0965 18.2C87.7632 19 86.7132 20.1 85.9465 21.5C85.1798 22.9 84.7965 24.5 84.7965 26.3C84.7965 28.0667 85.1798 29.6667 85.9465 31.1C86.7132 32.5333 87.7632 33.6667 89.0965 34.5C90.4632 35.3 91.9798 35.7 93.6465 35.7ZM124.303 40C122.836 40 121.536 39.6 120.403 38.8C119.269 38 118.386 36.9167 117.753 35.55C117.119 34.15 116.803 32.55 116.803 30.75V3.45C116.803 2.71667 117.036 2.11667 117.503 1.65C117.969 1.18333 118.569 0.949999 119.303 0.949999C120.036 0.949999 120.636 1.18333 121.103 1.65C121.569 2.11667 121.803 2.71667 121.803 3.45V30.75C121.803 31.9833 122.036 33 122.503 33.8C122.969 34.6 123.569 35 124.303 35H125.553C126.219 35 126.753 35.2333 127.153 35.7C127.586 36.1667 127.803 36.7667 127.803 37.5C127.803 38.2333 127.486 38.8333 126.853 39.3C126.219 39.7667 125.403 40 124.403 40H124.303ZM147.043 40.25C144.743 40.25 142.676 39.7667 140.843 38.8C139.043 37.8 137.61 36.35 136.543 34.45C135.51 32.55 134.993 30.2167 134.993 27.45V15.15C134.993 14.4167 135.226 13.8167 135.693 13.35C136.193 12.85 136.81 12.6 137.543 12.6C138.276 12.6 138.876 12.85 139.343 13.35C139.843 13.8167 140.093 14.4167 140.093 15.15V27.45C140.093 29.3167 140.443 30.8667 141.143 32.1C141.843 33.3 142.793 34.2 143.993 34.8C145.193 35.3667 146.543 35.65 148.043 35.65C149.476 35.65 150.743 35.3667 151.843 34.8C152.976 34.2333 153.876 33.4667 154.543 32.5C155.21 31.5333 155.543 30.45 155.543 29.25H158.693C158.693 31.3167 158.176 33.1833 157.143 34.85C156.143 36.5167 154.76 37.8333 152.993 38.8C151.26 39.7667 149.276 40.25 147.043 40.25ZM158.093 40C157.36 40 156.743 39.7667 156.243 39.3C155.776 38.8 155.543 38.1833 155.543 37.45V15.15C155.543 14.3833 155.776 13.7667 156.243 13.3C156.743 12.8333 157.36 12.6 158.093 12.6C158.86 12.6 159.476 12.8333 159.943 13.3C160.41 13.7667 160.643 14.3833 160.643 15.15V37.45C160.643 38.1833 160.41 38.8 159.943 39.3C159.476 39.7667 158.86 40 158.093 40ZM183.875 40.25C181.575 40.25 179.508 39.7667 177.675 38.8C175.875 37.8 174.442 36.35 173.375 34.45C172.342 32.55 171.825 30.2167 171.825 27.45V15.15C171.825 14.4167 172.058 13.8167 172.525 13.35C173.025 12.85 173.642 12.6 174.375 12.6C175.108 12.6 175.708 12.85 176.175 13.35C176.675 13.8167 176.925 14.4167 176.925 15.15V27.45C176.925 29.3167 177.275 30.8667 177.975 32.1C178.675 33.3 179.625 34.2 180.825 34.8C182.025 35.3667 183.375 35.65 184.875 35.65C186.308 35.65 187.575 35.3667 188.675 34.8C189.808 34.2333 190.708 33.4667 191.375 32.5C192.042 31.5333 192.375 30.45 192.375 29.25H195.525C195.525 31.3167 195.008 33.1833 193.975 34.85C192.975 36.5167 191.592 37.8333 189.825 38.8C188.092 39.7667 186.108 40.25 183.875 40.25ZM194.925 40C194.192 40 193.575 39.7667 193.075 39.3C192.608 38.8 192.375 38.1833 192.375 37.45V15.15C192.375 14.3833 192.608 13.7667 193.075 13.3C193.575 12.8333 194.192 12.6 194.925 12.6C195.692 12.6 196.308 12.8333 196.775 13.3C197.242 13.7667 197.475 14.3833 197.475 15.15V37.45C197.475 38.1833 197.242 38.8 196.775 39.3C196.308 39.7667 195.692 40 194.925 40Z" fill="#052DBA"/>
</g>
<defs>
<filter id="filter0_d_1_3" x="0.100006" y="0.949997" width="201.375" height="47.3" filterUnits="userSpaceOnUse" color-interpolation-filters="sRGB">
<feFlood flood-opacity="0" result="BackgroundImageFix"/>
<feColorMatrix in="SourceAlpha" type="matrix" values="0 0 0 0 0 0 0 0 0 0 0 0 0 0 0 0 0 0 127 0" result="hardAlpha"/>
<feOffset dy="4"/>
<feGaussianBlur stdDeviation="2"/>
<feComposite in2="hardAlpha" operator="out"/>
<feColorMatrix type="matrix" values="0 0 0 0 0 0 0 0 0 0 0 0 0 0 0 0 0 0 0.25 0"/>
<feBlend mode="normal" in2="BackgroundImageFix" result="effect1_dropShadow_1_3"/>
<feBlend mode="normal" in="SourceGraphic" in2="effect1_dropShadow_1_3" result="shape"/>
</filter>
</defs>
</svg>
